<svg width="40" height="40" viewBox="0 0 40 40" fill="none" xmlns="http://www.w3.org/2000/svg">
<path fill-rule="evenodd" clip-rule="evenodd" d="M39.3834 19.7475C39.3834 21.672 39.1394 23.5129 38.6513 25.2283C37.6752 28.7427 35.8042 31.8387 33.2418 34.2653C31.4521 35.9806 29.2965 37.3613 26.9374 38.2817C24.8224 39.1185 22.504 39.5787 20.1043 39.5787C19.7789 39.5787 19.4129 39.5787 19.0875 39.5368C18.5994 39.495 18.0707 39.4532 17.5826 39.4113C13.8813 38.9093 10.4648 37.3194 7.73967 34.9347C6.72284 34.0561 5.78736 33.052 4.93323 31.9642C4.32313 31.1693 3.7537 30.2907 3.26562 29.3702C3.1436 29.161 3.02159 28.91 2.89957 28.7008C2.77755 28.4498 2.65553 28.2406 2.57418 27.9896C2.2488 27.2365 1.96408 26.4416 1.72005 25.6466C1.55735 25.0609 1.39466 24.4752 1.27264 23.8895C1.19129 23.4711 1.10994 23.0527 1.06927 22.5925C0.947252 21.672 0.865906 20.7516 0.865906 19.7893C0.865906 19.2454 0.865911 18.7016 0.947257 18.1577C0.98793 17.823 0.987925 17.4883 1.06927 17.1535C1.31331 15.1872 1.84206 13.3463 2.61485 11.6309C2.98091 10.7942 3.42832 9.95743 3.9164 9.20434C4.72986 7.90737 5.66534 6.69407 6.76352 5.60628C10.2207 2.13373 14.9795 0 20.1857 0C20.389 0 20.5924 0 20.7958 0C20.9991 0 21.2432 9.56971e-07 21.4465 0.0418389C22.5447 0.125515 23.6429 0.292867 24.6597 0.543894C25.2698 0.711246 25.8799 0.878597 26.4494 1.08779C26.8561 1.2133 27.2221 1.38065 27.6289 1.548C27.9136 1.67352 28.1983 1.79903 28.483 1.92455C28.5237 1.96638 28.5643 1.96638 28.6457 2.00822C30.5167 2.92866 32.2249 4.18379 33.6892 5.68996C33.8925 5.89915 34.0959 6.10834 34.2993 6.31753C34.4213 6.48488 34.584 6.61039 34.706 6.77775C34.95 7.02877 35.1534 7.32164 35.3568 7.57266C36.1296 8.57677 36.7803 9.66456 37.3498 10.7942C38.0005 12.133 38.5293 13.5555 38.8953 15.0198C39.1801 16.526 39.3834 18.1158 39.3834 19.7475Z" fill="url(#paint0_radial_304_10)"/>
<path opacity="0.4" fill-rule="evenodd" clip-rule="evenodd" d="M0.825439 19.7475C0.825439 19.7475 5.38084 28.0314 9.77354 29.3284C14.1662 30.6253 19.1691 29.7886 20.8773 30.458C22.5856 31.1274 23.5211 33.805 23.5211 33.805L24.1719 34.1816C24.1719 34.1816 25.6361 31.8386 26.5309 33.2193C26.5309 33.2193 26.1649 31.2529 27.263 28.8681C28.3612 26.4834 29.0526 23.9313 30.3948 23.0945C31.7371 22.2577 34.1775 21.8812 36.1298 22.6761C38.0821 23.471 39.0583 23.3037 39.0583 23.3037L39.2209 22.3833L39.3836 21.5465C39.3836 21.5465 37.5127 21.8394 36.0484 20.8771C36.0484 20.8771 36.2518 21.2536 37.3906 19.0362C38.5295 16.8188 38.4075 14.8106 38.4075 14.8106L38.2448 12.9697C38.2448 12.9697 37.6347 19.3709 34.9909 21.2118C34.9909 21.2118 29.134 19.9567 26.6529 27.0691C26.6529 27.0691 26.2462 31.7968 23.7651 31.6713C21.3247 31.5458 22.1789 28.4498 18.5996 28.4079C15.0611 28.3661 12.9054 29.8722 9.40749 27.8222C5.90959 25.7721 0.825439 19.7475 0.825439 19.7475Z" fill="#7D72B3"/>
<path opacity="0.4" fill-rule="evenodd" clip-rule="evenodd" d="M19.0877 39.5368C19.0877 39.5368 21.5281 35.8132 24.1719 35.8132C26.8563 35.8132 28.0765 36.8173 30.1915 35.5622C32.3065 34.3071 33.1607 33.5121 34.1368 32.8427C35.113 32.1733 35.2757 31.9641 35.2757 31.9641L35.7231 31.3784C35.7231 31.3784 34.2589 30.6253 32.9573 31.7131C31.6558 32.8009 29.2967 35.2693 27.4257 35.2275C25.5548 35.2275 25.6361 34.0979 23.5618 34.9765C21.4468 35.8551 17.0541 38.9092 17.0541 38.9092C17.0541 38.9092 17.8269 39.495 19.0877 39.5368Z" fill="#7D72B3"/>
<path opacity="0.4" fill-rule="evenodd" clip-rule="evenodd" d="M1.88269 26.2324L2.12673 26.9018C2.12673 26.9018 5.86867 29.0355 8.26839 32.006C10.6274 34.9765 11.0748 36.9847 11.0748 36.9847C11.0748 36.9847 11.4816 35.2275 9.44791 31.8805C7.37357 28.5753 2.98087 26.7344 1.88269 26.2324Z" fill="#7D72B3"/>
<path fill-rule="evenodd" clip-rule="evenodd" d="M28.5643 1.92458C28.4829 1.92458 28.4423 1.92458 28.3609 1.96642C28.1575 2.00825 27.9542 1.96642 27.7508 1.92458C27.5881 1.88274 27.5068 1.79907 27.3034 1.79907C27.0594 1.75723 26.856 1.67355 26.612 1.63171C26.3679 1.58988 26.1646 1.5062 25.9205 1.42252C25.7172 1.33885 25.6358 1.38069 25.4731 1.42252C25.3104 1.46436 25.1884 1.38069 25.0257 1.33885C24.863 1.25517 24.6597 1.25517 24.497 1.21333C24.0089 1.12966 23.5208 0.962306 23.0327 0.836793C22.748 0.753117 22.4633 0.753118 22.1379 0.753118C21.8939 0.753118 21.6905 0.836793 21.4465 0.836793C21.2838 0.836793 21.1618 0.794955 20.9991 0.794955C20.8364 0.753118 20.6737 0.794955 20.511 0.794955C20.267 0.753118 20.1449 0.71128 19.9009 0.794955C19.6975 0.836793 19.5755 0.836794 19.3721 0.878632C19.1688 0.878632 18.9247 0.962307 18.7214 1.00415C18.3553 1.08782 17.9486 1.1715 17.5825 1.1715C17.3385 1.1715 17.0131 1.08782 16.8097 1.1715C16.6877 1.21334 16.6064 1.38069 16.4843 1.46436C16.281 1.67355 16.0776 1.8409 15.9149 2.05009C15.7522 2.25928 15.5895 2.51031 15.5895 2.80318C15.5895 3.0542 15.7116 3.34707 15.8336 3.55626C15.9556 3.80729 15.9963 4.01647 15.7522 4.18383C15.4675 4.39302 15.1015 4.56037 14.7761 4.68588C14.532 4.76956 14.3287 4.8114 14.166 4.64404C14.0846 4.60221 14.044 4.47669 13.9626 4.39302C13.8813 4.35118 13.7592 4.39302 13.6779 4.43485C13.4339 4.51853 13.1898 4.60221 12.9458 4.64404C12.7831 4.68588 12.6611 4.76956 12.4984 4.76956C12.3357 4.8114 12.2137 4.68588 12.0103 4.72772C11.7663 4.76956 11.4815 4.89507 11.2375 4.89507C11.0341 4.89507 10.7901 4.8114 10.6274 4.72772C10.5461 4.68588 10.5054 4.60221 10.3834 4.64404C10.302 4.64404 10.18 4.76956 10.1393 4.85323C10.058 4.93691 10.058 5.06242 9.97664 5.1461C9.89529 5.27161 9.85462 5.35529 9.77327 5.4808C9.65125 5.68999 9.52924 5.89918 9.40722 6.10837C9.32587 6.23388 9.24452 6.44308 9.1225 6.56859C9.08183 6.65227 8.95982 6.6941 8.87847 6.73594C8.6751 6.86145 8.47174 7.0288 8.26837 7.15432C7.90231 7.44718 7.53625 7.78189 7.17019 8.07475C6.88548 8.28394 6.47875 8.40946 6.15336 8.57681C5.94999 8.66048 5.74663 8.74416 5.54326 8.82784C5.46192 8.86967 5.33989 8.86967 5.29922 8.95335C5.21787 9.03703 5.1772 9.1207 5.13653 9.24621C4.97384 9.4554 4.77047 9.70643 4.64845 9.95746C4.5671 10.1248 4.52643 10.2503 4.44508 10.4177C4.36373 10.6269 4.24172 10.8361 4.20105 11.0871C4.03836 11.5473 4.03835 12.0494 3.83498 12.5096C3.75364 12.7606 3.59095 13.0116 3.46893 13.2627C3.26556 13.681 3.2249 14.1831 3.18422 14.6433C3.14355 14.8943 3.18421 15.229 3.22489 15.4801C3.26556 15.7729 3.26556 16.0658 3.26556 16.3587C3.26556 16.6515 3.0622 16.9862 2.8995 17.1954C2.73681 17.4046 2.4521 17.4883 2.24873 17.6975C2.08604 17.8648 1.88267 18.0322 1.80132 18.2832C1.76065 18.3669 1.80132 18.4924 1.80132 18.6179C1.76065 18.8689 1.67931 19.0781 1.67931 19.3292C1.63864 19.622 1.63863 19.9149 1.63863 20.2496C1.63863 20.4169 1.63863 20.5425 1.63863 20.7098C1.63863 20.8772 1.67931 21.0027 1.71998 21.1282C1.71998 21.2119 1.71998 21.3374 1.71998 21.4211C1.71998 21.5466 1.80132 21.6721 1.80132 21.7558C1.88267 22.0486 1.92335 22.2996 1.96403 22.5925C2.0047 22.8435 2.12672 23.0946 2.16739 23.3456C2.28941 23.6803 2.33007 24.015 2.41142 24.3915C2.45209 24.6426 2.4521 24.9354 2.49277 25.1865C2.53345 25.3957 2.57412 25.6048 2.57412 25.814C2.57412 26.1487 2.49277 26.4416 2.49277 26.7763C2.49277 27.3202 2.69613 27.8641 2.81815 28.408C2.85883 28.5753 2.89951 28.7008 2.94018 28.8682C1.59796 26.1906 0.865845 23.1364 0.865845 19.9149C0.865845 15.9821 1.96402 12.3422 3.87566 9.28805C4.68912 7.99108 5.62461 6.77778 6.72278 5.73183C10.18 2.25928 14.9388 0.125549 20.1449 0.125549C20.5517 0.125549 20.9991 0.125549 21.4058 0.167387C23.9275 0.125549 26.3679 0.836794 28.5643 1.92458Z" fill="url(#paint1_linear_304_10)"/>
<path opacity="0.4" fill-rule="evenodd" clip-rule="evenodd" d="M5.54333 8.66051C5.54333 8.66051 9.89537 12.6351 15.5896 12.7606C21.3245 12.8861 23.4395 12.4678 25.3512 10.2922C27.2628 8.11661 29.2965 4.43488 29.2965 4.43488C29.2965 4.43488 26.8561 5.64818 25.1478 8.03294C23.4802 10.3759 15.5083 14.3923 5.54333 8.66051Z" fill="#7D72B3"/>
<g opacity="0.25">
<path opacity="0.4" fill-rule="evenodd" clip-rule="evenodd" d="M5.90931 8.74413C5.33989 9.45538 4.85181 10.1248 4.48575 10.9615C4.16037 11.6728 4.03835 12.5095 3.91633 13.3045C3.83498 13.7647 3.79431 14.2249 3.71296 14.727C3.67229 15.1453 3.55028 15.5637 3.59095 15.9821C3.6723 16.5678 3.71297 17.1954 3.99768 17.6974C4.28239 18.2413 4.5671 18.7434 4.93316 19.2454C5.29922 19.7057 5.74662 19.9567 6.35672 19.9985C6.68211 20.0404 7.00749 19.9567 7.33288 19.9985C7.78028 20.0404 8.22769 20.124 8.6751 20.2077C9.56991 20.3751 10.5867 20.3751 11.2375 19.622C11.7663 18.9944 12.0103 18.2413 12.3357 17.4883C12.7017 16.6933 13.1491 16.0658 13.7999 15.5219C14.288 15.1453 14.7354 14.6851 15.1828 14.2667C15.3862 14.0994 15.5082 13.8902 15.7522 13.7228C15.9963 13.5973 16.1183 13.43 16.3217 13.2208C16.525 13.0534 16.7284 12.9279 16.8911 12.7187C17.1758 12.384 17.3792 11.9657 17.5012 11.5891C17.6639 11.1707 17.7045 10.7523 17.7859 10.2921C17.8266 9.87375 17.7045 9.45537 17.5825 9.037C17.3385 8.28391 16.6877 7.78186 16.1183 7.32164C15.3862 6.73591 14.4914 6.48488 13.5965 6.27569C12.7831 6.10834 11.7663 6.0665 10.9121 6.23386C10.0173 6.40121 9.12249 6.52672 8.30903 6.90326C7.69893 7.19613 7.33288 7.57267 6.84481 8.03289C6.60077 8.24208 6.31604 8.40943 6.072 8.66046C5.78729 8.99516 5.50258 9.3717 5.90931 8.74413Z" fill="black"/>
<path opacity="0.4" fill-rule="evenodd" clip-rule="evenodd" d="M14.6134 5.06242C14.7354 4.85323 14.8574 4.51852 15.0201 4.35117C15.1015 4.22566 15.2235 4.14198 15.3455 4.05831C15.6709 3.76544 16.037 3.55625 16.4437 3.43074C16.6877 3.34706 16.9318 3.34706 17.1351 3.43074C17.3792 3.47258 17.7859 3.63993 17.9486 3.80728C18.274 4.14198 18.0706 4.68588 17.9486 5.06242C17.8673 5.43896 17.7452 5.8155 17.4199 6.02469C17.2165 6.19204 16.9318 6.31756 16.6877 6.35939C16.5657 6.40123 16.403 6.40123 16.2403 6.40123C16.1183 6.40123 15.9963 6.44307 15.915 6.44307C15.6302 6.44307 15.2235 6.23388 15.1422 5.98285C15.1015 5.85734 15.0608 5.68999 14.9795 5.56447C14.9388 5.43896 14.8981 5.35528 14.8574 5.22977C14.7761 5.02058 14.7354 4.81139 14.6134 5.06242Z" fill="black"/>
<path opacity="0.4" fill-rule="evenodd" clip-rule="evenodd" d="M17.8265 7.1543C17.7451 7.36349 17.7045 7.61452 17.7045 7.82371C17.7858 7.86554 17.8265 7.99106 17.9485 8.07473C18.0299 8.11657 18.1519 8.11657 18.2739 8.11657C18.4773 8.11657 18.6399 8.11657 18.6806 7.86554C18.7213 7.65635 18.5179 7.489 18.3552 7.36349C18.2332 7.27981 18.0299 7.07062 17.9078 7.23797L17.8265 7.1543Z" fill="black"/>
<path opacity="0.4" fill-rule="evenodd" clip-rule="evenodd" d="M20.4703 10.3759C20.2262 10.5432 19.9415 10.7106 19.6975 10.9198C19.4128 11.1708 19.1687 11.4636 18.9247 11.7984C18.64 12.1749 18.2739 12.5933 18.3553 13.1372C18.4366 13.6392 18.5993 14.0994 18.9654 14.4341C19.4128 14.8525 20.1042 14.8525 20.633 15.1035C21.0804 15.3127 21.3651 15.773 21.5685 16.2332C21.8938 16.9026 22.626 17.0281 23.2767 17.1536C23.6835 17.2373 24.1309 17.2791 24.5376 17.3628C25.107 17.4465 25.6765 17.5301 26.2459 17.6138C27.3034 17.6975 28.3609 17.9485 29.4184 17.8649C30.5572 17.7812 31.5741 17.3628 32.4689 16.6934C33.2417 16.1495 33.9738 15.1454 34.1772 14.1831C34.3805 13.179 34.0551 12.0494 33.6077 11.1289C32.9976 9.95748 32.2655 8.91154 31.452 7.86559C31.0046 7.27986 30.5166 6.7778 30.0285 6.23391C29.6218 5.73185 29.215 5.31347 28.7676 4.89509C27.7101 3.97466 26.4086 3.22158 25.0257 3.1379C24.4969 3.09606 23.9682 3.17974 23.4394 3.38893C22.992 3.55628 22.6666 3.80731 22.3412 4.18385C21.5278 5.06245 21.0804 6.19207 20.7143 7.32169C20.5516 7.86559 20.3889 8.45132 20.4703 8.99521C20.4703 9.16256 20.5923 9.28807 20.5923 9.45543C20.5923 9.62278 20.5923 9.74829 20.5923 9.91565C20.5923 9.99932 20.5923 10.083 20.5516 10.1667C20.511 10.2503 20.3889 10.3759 20.4703 10.3759Z" fill="black"/>
<path opacity="0.4" fill-rule="evenodd" clip-rule="evenodd" d="M16.0776 14.3086C15.5488 14.6433 14.9794 14.8943 14.5727 15.3964C14.4913 15.48 14.41 15.6056 14.4506 15.7311C14.4913 15.8566 14.654 15.9403 14.776 15.9821C15.1828 16.1495 15.6708 16.2331 16.1182 16.1495C16.525 16.0658 17.0131 15.8148 17.2164 15.4382C17.5011 14.978 17.1757 14.2249 16.6063 14.2667C16.525 14.2667 16.4436 14.3086 16.3623 14.3086C16.2809 14.3086 16.2403 14.3086 16.1589 14.3086C16.0776 14.3086 16.0776 14.3086 15.9962 14.3504C15.9149 14.4341 15.8335 14.5178 16.0776 14.3086Z" fill="black"/>
<path opacity="0.4" fill-rule="evenodd" clip-rule="evenodd" d="M4.93313 21.9649C4.72977 22.1741 4.48573 22.3415 4.36371 22.5925C4.24169 22.8435 4.16034 23.0946 4.11967 23.3874C4.079 23.6385 3.99765 23.8895 4.079 24.1405C4.11967 24.3497 4.24169 24.5589 4.32304 24.8099C4.40438 25.1028 4.52641 25.3538 4.56708 25.6467C4.64842 26.0232 4.77044 26.3161 4.93313 26.6508C5.09583 26.9855 5.25852 27.2784 5.46188 27.5712C5.66525 27.9059 5.86862 28.1151 6.11265 28.408C7.00747 29.3284 8.06497 30.3325 9.36651 30.4999C10.0173 30.5836 10.7087 30.4162 11.1968 29.9142C11.7256 29.3703 12.0509 28.6172 12.173 27.8641C12.2543 27.2365 12.2136 26.5671 11.8883 26.0232C11.6035 25.563 11.3188 25.1028 10.9934 24.7262C10.7494 24.4752 10.5054 24.266 10.2206 24.015C9.97661 23.764 9.73257 23.513 9.44786 23.3456C8.95978 22.9691 8.51238 22.5925 8.0243 22.2578C7.57689 21.9231 7.08881 21.5884 6.56006 21.4629C6.194 21.3792 5.78728 21.2955 5.42122 21.4629C5.25853 21.5466 5.1365 21.5884 5.05515 21.7139C5.01448 21.7976 4.93313 21.9231 4.93313 22.0068C4.85179 21.9231 4.81112 21.9231 4.93313 21.9649Z" fill="black"/>
<path opacity="0.4" fill-rule="evenodd" clip-rule="evenodd" d="M8.3497 21.0864C8.3497 21.2537 8.39038 21.4211 8.39038 21.5466C8.39038 21.5884 8.43105 21.6303 8.43105 21.7139C8.47172 21.7558 8.59374 21.7558 8.63442 21.7558C8.79711 21.7558 8.95981 21.6721 9.08183 21.5884C9.28519 21.4211 9.36653 21.0864 9.16316 20.919C9.04114 20.7935 8.83778 20.7098 8.63442 20.7517C8.55307 20.7935 8.10567 21.0027 8.26836 21.17L8.3497 21.0864Z" fill="black"/>
<path opacity="0.4" fill-rule="evenodd" clip-rule="evenodd" d="M34.1365 16.7352C34.2178 16.4005 34.2178 16.1495 34.4212 15.8984C34.6246 15.6892 34.8279 15.4382 34.9906 15.229C35.316 14.8106 35.5194 14.2668 35.6414 13.7647C35.7634 13.3045 35.6414 12.8443 35.8448 12.384C35.8854 12.2585 35.9668 12.0912 36.0481 12.0075C36.1295 11.9657 36.3735 12.0075 36.4549 12.0493C36.5362 12.0912 36.6582 12.2167 36.7396 12.3004C36.8616 12.4259 36.9836 12.5514 37.1463 12.7187C37.7971 13.43 38.1631 14.5178 38.1224 15.48C38.1224 16.0658 38.0411 16.5678 37.8784 17.1117C37.7971 17.3209 37.7157 17.5301 37.5937 17.7393C37.4717 17.9903 37.2683 18.1158 37.0649 18.2832C36.4142 18.7016 35.438 18.5761 34.8686 18.0322C34.6652 17.823 34.5839 17.5719 34.4212 17.3209C34.2992 17.1536 34.2178 16.9862 34.1772 16.7352C34.1772 16.6933 34.1771 16.6933 34.1365 16.7352Z" fill="black"/>
<path opacity="0.4" fill-rule="evenodd" clip-rule="evenodd" d="M34.1365 9.28804C34.2585 9.66458 34.2992 10.083 34.7059 10.2921C34.7873 10.334 34.9093 10.3758 34.9906 10.3758C35.072 10.3758 35.1533 10.334 35.2347 10.2503C35.6414 9.95744 35.3973 9.2462 35.1533 8.91149C34.9906 8.74414 34.7873 8.66046 34.5839 8.57679C34.5025 8.53495 34.5025 8.53495 34.4212 8.57679C34.3398 8.61863 34.2992 8.61863 34.2585 8.7023C34.2178 8.74414 34.2178 8.86966 34.2178 8.91149C34.2178 8.99517 34.1772 9.03701 34.1772 9.07885C34.1365 9.20436 34.1772 9.32987 34.2178 9.45538L34.1365 9.28804Z" fill="black"/>
<path opacity="0.4" fill-rule="evenodd" clip-rule="evenodd" d="M31.1266 25.3957C31.0453 25.6467 30.9639 25.9396 30.8419 26.1906C30.7199 26.4835 30.5979 26.7345 30.4759 27.0273C30.1911 27.7386 30.0285 28.5335 29.8251 29.2866C29.6217 30.0815 29.4997 30.9183 29.4184 31.7132C29.3777 32.1316 29.2963 32.5499 29.337 32.9683C29.337 33.2612 29.337 33.6377 29.459 33.9306C29.5404 34.098 29.7031 34.3908 29.8658 34.4745C30.1098 34.6 30.3945 34.3908 30.5979 34.2653C31.3707 33.8469 32.0621 33.2612 32.6722 32.6336C33.2823 32.0061 33.8924 31.4203 34.4212 30.7091C34.6652 30.3744 34.9092 30.0815 35.1126 29.705C35.2753 29.4121 35.3973 29.0774 35.5193 28.7845C35.6414 28.4917 35.7634 28.1988 35.8854 27.9059C36.0481 27.5712 36.1701 27.1947 36.2921 26.8182C36.4955 26.1069 36.6989 25.3957 36.4548 24.6844C36.2515 24.0569 35.7634 23.5966 35.1126 23.4711C34.7872 23.3874 34.3805 23.3038 34.0551 23.3038C33.7297 23.3456 33.3636 23.4293 33.0383 23.5548C32.7536 23.6803 32.4688 23.8058 32.2248 23.9732C32.1028 24.0569 31.9808 24.1824 31.8588 24.3079C31.6554 24.5171 31.4927 24.7263 31.33 24.9773C31.2487 25.1028 31.208 25.1865 31.086 25.2702C31.0453 25.4793 30.964 25.6885 31.1266 25.3957Z" fill="black"/>
<path opacity="0.4" fill-rule="evenodd" clip-rule="evenodd" d="M28.0762 34.5582C27.6695 34.7255 27.3441 34.851 26.978 35.1439C26.5713 35.4786 26.1646 35.7715 25.8799 36.2317C25.7578 36.399 25.5545 36.6501 25.7172 36.8593C25.8392 37.0266 26.0832 37.0266 26.2866 37.0266C26.5713 37.0266 26.856 36.9848 27.1001 36.8593C27.3441 36.7756 27.5475 36.6082 27.7915 36.5245C28.0355 36.4409 28.3609 36.2735 28.5236 36.0643C28.605 35.9388 28.6863 35.7715 28.7677 35.646C28.849 35.5204 28.849 35.4786 28.849 35.3113C28.849 35.1439 28.727 34.9347 28.6456 34.851C28.5643 34.7674 28.3609 34.6418 28.2389 34.6837C28.1576 34.6837 28.0762 34.7255 27.9949 34.7674C27.8322 34.7674 27.7102 34.9765 28.0762 34.5582Z" fill="black"/>
<path opacity="0.4" fill-rule="evenodd" clip-rule="evenodd" d="M27.5881 32.1316C27.5068 31.7969 27.4254 31.5877 27.4254 31.253C27.4661 30.9601 27.4661 30.7091 27.5881 30.4581C27.6695 30.3325 27.8321 29.9978 27.9542 29.956C27.9948 29.956 28.1169 29.956 28.1575 29.956C28.3609 29.9978 28.4829 30.2489 28.5236 30.4581C28.6049 30.7509 28.5236 31.0856 28.5643 31.4203C28.5643 31.6713 28.5236 31.8805 28.4422 32.0897C28.3609 32.2571 28.2389 32.2571 28.0762 32.2571C27.9135 32.2571 27.8322 32.2152 27.7101 32.0897C27.6695 32.0479 27.5881 32.0479 27.5474 32.0061C27.4661 31.9224 27.4661 31.8387 27.5881 32.1316Z" fill="black"/>
<path opacity="0.4" fill-rule="evenodd" clip-rule="evenodd" d="M27.222 19.5802C27.1813 19.7893 27.1813 20.0404 27.1813 20.2496C27.2627 20.2496 27.344 20.4169 27.4254 20.4169C27.5881 20.4588 27.7101 20.3751 27.8321 20.2914C28.0761 20.0822 28.1575 19.7057 28.0762 19.4128C28.0355 19.1199 27.7101 19.0781 27.4661 19.1199C27.3847 19.1199 27.2627 19.1618 27.222 19.2036C27.0593 19.3291 27.0593 19.4965 27.0593 19.6638L27.222 19.5802Z" fill="black"/>
<path opacity="0.4" fill-rule="evenodd" clip-rule="evenodd" d="M8.83777 33.2193C8.95978 32.9683 9.0818 32.7173 9.2445 32.5081C9.44786 32.257 9.65123 32.0478 9.8546 31.8387C10.1393 31.5876 10.424 31.3366 10.7087 31.1274C10.9934 30.9182 11.2375 30.709 11.5222 30.4998C12.0103 30.1651 12.539 29.9559 13.1085 29.7468C13.5559 29.5794 14.0439 29.5376 14.532 29.6212C15.0201 29.7049 15.5082 29.9978 15.8335 30.3325C16.1589 30.6672 16.525 31.0856 16.7284 31.504C17.1758 32.3825 16.9724 33.3867 16.6877 34.2653C16.5657 34.6836 16.281 35.1439 15.9556 35.4367C15.7522 35.6041 15.5488 35.6877 15.3048 35.7296C15.0608 35.7714 14.7354 35.8969 14.4913 35.8969C13.3118 36.0643 12.1323 35.9806 11.0341 35.5622C10.5867 35.3949 10.18 35.1857 9.73257 34.9765C9.40718 34.8091 9.12247 34.6 8.9191 34.3071C8.75641 34.0979 8.6344 33.805 8.6344 33.5122C8.6344 33.3867 8.67507 33.2611 8.71574 33.1356C8.79708 33.2193 8.83777 33.1775 8.83777 33.2193Z" fill="black"/>
<path opacity="0.4" fill-rule="evenodd" clip-rule="evenodd" d="M17.5418 33.7632C17.4605 33.9724 17.4198 34.2234 17.3792 34.4326C17.4605 34.4745 17.4605 34.6 17.5012 34.6837C17.5825 34.7673 17.6232 34.8092 17.7452 34.8092C17.8672 34.8092 17.9892 34.8092 18.0706 34.8092C18.2333 34.7673 18.274 34.7255 18.3553 34.6C18.4367 34.4745 18.4773 34.3908 18.4773 34.2234C18.4773 34.0979 18.4367 33.9724 18.3553 33.8887C18.3146 33.8051 18.2333 33.7214 18.1519 33.6795C17.9892 33.554 17.8672 33.6377 17.7452 33.7214L17.5418 33.7632Z" fill="black"/>
<path opacity="0.4" fill-rule="evenodd" clip-rule="evenodd" d="M36.5768 23.4293C36.4141 23.3037 36.2515 23.1364 36.1294 22.9272C36.1294 22.8435 36.1294 22.7599 36.1294 22.6762C36.0888 22.467 36.0481 22.2996 36.0887 22.0904C36.1701 21.5884 36.5768 21.2537 37.0649 21.2119C37.3903 21.17 37.8377 21.421 38.0004 21.7139C38.1631 22.0068 38.2444 22.3415 38.2444 22.6762C38.2444 22.9272 38.2038 23.2619 38.0411 23.4711C37.9191 23.6385 37.7157 23.6385 37.553 23.6385C37.3496 23.6385 37.1463 23.5966 36.9836 23.5548C36.8209 23.5129 36.6582 23.4293 36.5768 23.4293Z" fill="black"/>
</g>
<path opacity="0.4" fill-rule="evenodd" clip-rule="evenodd" d="M3.06238 17.6138C3.06238 17.6138 13.8408 22.1323 19.6977 21.7976C25.5547 21.4211 28.0357 17.9904 30.3948 14.8525C32.7131 11.7147 33.608 7.90742 33.608 7.90742C33.608 7.90742 29.1746 16.6934 23.6837 19.0363L20.5112 19.7057C20.5112 19.7057 22.1788 18.4506 23.3176 17.1536C24.4565 15.8566 28.8899 14.0158 29.3373 12.5096C29.744 11.0034 29.7033 8.53499 30.4354 6.94515C31.1676 5.35531 31.859 4.05834 31.859 4.05834L29.9474 3.72363L29.0525 5.8992C29.0525 5.8992 28.8085 9.49727 28.1171 11.4218C27.4256 13.3882 20.7552 18.7016 19.2503 19.5802C17.7454 20.4588 4.44527 18.5761 3.06238 17.6138Z" fill="#7D72B3"/>
<path opacity="0.4" fill-rule="evenodd" clip-rule="evenodd" d="M22.3416 36.6081C22.3823 36.6081 23.0737 36.2734 23.2771 36.2734C23.3584 36.2734 23.4398 36.3571 23.5211 36.399C23.7245 36.5245 23.8465 36.65 23.8058 36.901C23.7652 37.2357 23.4398 37.6541 23.0737 37.7796C22.6263 37.947 22.1382 37.7378 21.9755 37.4031C21.8128 37.0684 22.2196 36.5245 22.7076 36.4826L22.3416 36.6081Z" fill="#7D72B3"/>
<path fill-rule="evenodd" clip-rule="evenodd" d="M13.3121 16.8607C13.0681 17.3209 12.4173 18.1158 12.6207 18.7852C12.702 19.0781 12.9054 19.3291 13.0274 19.622C13.3528 20.3332 14.0036 21.0444 14.817 20.5424C15.7525 19.9567 15.3458 18.9107 14.9391 18.1576C14.7764 17.8648 14.573 17.5301 14.2883 17.3627C14.1256 17.279 13.8816 17.1954 13.7189 17.1535C13.3935 17.028 13.5969 16.8607 13.3121 16.8607Z" fill="#FF9F84"/>
<path fill-rule="evenodd" clip-rule="evenodd" d="M19.4538 2.30109C19.4132 2.55212 19.4132 2.76131 19.4538 3.01233C19.5352 3.01233 19.5759 3.05417 19.6572 3.05417C19.7386 3.05417 19.8606 3.01233 19.9419 2.92866C20.1046 2.84498 20.1453 2.63579 20.1453 2.46844C20.1453 2.30109 20.1453 2.13374 19.9826 2.05006C19.7792 1.92455 19.5759 2.00822 19.4945 2.21741V2.30109H19.4538Z" fill="#FFEF84"/>
<path fill-rule="evenodd" clip-rule="evenodd" d="M15.3865 23.8476C15.4272 23.7221 15.4678 23.3037 15.5898 23.1364C15.6712 23.0109 15.8746 22.9272 16.0372 22.8435C16.3626 22.718 16.7287 22.7598 16.9727 23.0109C17.4608 23.4292 17.4201 24.0986 16.9727 24.5589C16.7694 24.768 16.4847 24.9772 16.1999 24.9772C16.0373 24.9772 15.8746 25.0191 15.7525 24.9354C15.5898 24.8517 15.4678 24.6844 15.4271 24.517C15.3458 24.2242 15.3865 24.015 15.5492 23.7639L15.3865 23.8476Z" fill="#FF9F84"/>
<path fill-rule="evenodd" clip-rule="evenodd" d="M11.848 23.6384C11.848 23.8476 11.726 24.3915 12.0513 24.4752C12.214 24.517 12.3767 24.3079 12.3767 24.1823C12.4174 24.0568 12.3767 23.8476 12.3361 23.7221C12.2547 23.5548 12.092 23.4293 11.97 23.5966H11.848V23.6384Z" fill="#FF9F84"/>
<path fill-rule="evenodd" clip-rule="evenodd" d="M3.63196 19.7893C3.67263 20.124 3.67263 20.6679 3.876 20.9607C3.95735 21.0863 4.0387 21.2118 4.20139 21.2536C4.36409 21.2955 4.44543 21.2118 4.52677 21.0863C4.68947 20.8771 4.68946 20.7516 4.68946 20.5005C4.68946 20.2913 4.60812 20.0403 4.52677 19.8311C4.44543 19.7056 4.3234 19.5801 4.24206 19.4964C4.16071 19.4127 4.07937 19.3709 3.91668 19.3709C3.71331 19.3709 3.75398 19.6219 3.71331 19.7893H3.63196Z" fill="#FF9F84"/>
<path fill-rule="evenodd" clip-rule="evenodd" d="M32.1846 18.1576C32.1846 18.1158 32.2253 17.5301 32.3473 17.4045C32.3879 17.3627 32.51 17.3209 32.5506 17.279C32.7133 17.1954 32.9167 17.1535 33.12 17.2372C33.3641 17.3627 33.6081 17.7393 33.5268 18.0321C33.4454 18.4087 33.0387 18.6597 32.7133 18.6597C32.3473 18.6597 32.0626 18.1995 32.2659 17.8648L32.1846 18.1576Z" fill="#FF9F84"/>
<path fill-rule="evenodd" clip-rule="evenodd" d="M12.3767 22.8435C12.3767 22.8435 12.4174 22.5506 12.4581 22.467C12.4987 22.4251 12.5394 22.4251 12.5801 22.4251C12.6614 22.3833 12.7834 22.3833 12.8648 22.4251C12.9868 22.5088 13.1088 22.6761 13.0682 22.8435C13.0275 23.0108 12.8241 23.1782 12.6614 23.1782C12.4987 23.1782 12.336 22.9272 12.4174 22.7598L12.3767 22.8435Z" fill="#FF9F84"/>
<path fill-rule="evenodd" clip-rule="evenodd" d="M21.1621 26.4834C21.1621 26.4834 21.2028 26.1905 21.2435 26.1068C21.2841 26.065 21.3248 26.065 21.3655 26.065C21.4468 26.0232 21.5688 26.0232 21.6502 26.065C21.7722 26.1487 21.8942 26.316 21.8536 26.4834C21.8129 26.6507 21.6095 26.8181 21.4468 26.8181C21.2841 26.8181 21.1214 26.5671 21.2028 26.3997L21.1621 26.4834Z" fill="#FF9F84"/>
<path fill-rule="evenodd" clip-rule="evenodd" d="M27.1003 10.5013C27.1003 10.5013 27.141 10.2084 27.1817 10.1247C27.2224 10.0829 27.263 10.0829 27.3037 10.0829C27.3851 10.0411 27.5071 10.0411 27.5884 10.0829C27.7104 10.1666 27.8325 10.3339 27.7918 10.5013C27.7511 10.6686 27.5478 10.836 27.3851 10.836C27.2224 10.836 27.0597 10.5849 27.141 10.4176L27.1003 10.5013Z" fill="#FF9F84"/>
<path fill-rule="evenodd" clip-rule="evenodd" d="M15.0204 33.6795C15.0204 33.6795 15.0611 33.3866 15.1017 33.3029C15.1424 33.2611 15.1831 33.2611 15.2238 33.2611C15.3051 33.2193 15.4271 33.2193 15.5085 33.2611C15.6305 33.3448 15.7525 33.5121 15.7118 33.6795C15.6712 33.8468 15.4678 34.0142 15.3051 34.0142C15.1424 34.0142 14.9797 33.7632 15.0611 33.5958L15.0204 33.6795Z" fill="#FF9F84"/>
<path fill-rule="evenodd" clip-rule="evenodd" d="M30.9237 23.0945C30.639 23.3037 30.4356 23.3874 30.2729 23.6384C30.1509 23.8476 29.9882 24.015 29.9068 24.266C29.8255 24.4334 29.7441 24.7262 29.7441 24.8936C29.7848 25.3956 30.3949 24.9772 30.5983 24.8099C30.8423 24.6007 31.0864 24.3078 31.0864 23.9731C31.0864 23.8476 31.0864 23.6803 31.0457 23.5548C31.005 23.5129 31.005 23.4292 30.9643 23.3874C30.883 23.3037 30.8423 23.3037 30.9237 23.0945Z" fill="#FF9F84"/>
<path fill-rule="evenodd" clip-rule="evenodd" d="M37.0654 25.3956C37.106 25.1864 36.984 25.9813 37.0247 26.0232C37.106 26.0232 37.1874 26.0232 37.2687 26.0232C37.3501 26.0232 37.3907 25.9395 37.4721 25.8977C37.6348 25.7722 37.7568 25.6885 37.7568 25.4793C37.7568 25.3119 37.7161 25.1864 37.5534 25.1028C37.4721 25.0609 37.4314 25.0609 37.3501 25.0609C37.1874 25.1028 37.0654 25.2701 36.984 25.4375L37.0654 25.3956Z" fill="#FF9F84"/>
<path fill-rule="evenodd" clip-rule="evenodd" d="M20.7147 2.38475C20.7147 2.2174 20.6333 2.80313 20.674 2.80313C20.7147 2.80313 20.796 2.80313 20.8367 2.80313C20.918 2.80313 20.918 2.7613 20.9587 2.71946C21.0807 2.63578 21.1621 2.59395 21.1621 2.42659C21.1621 2.30108 21.1621 2.2174 21.04 2.17557C20.9994 2.17557 20.9587 2.13373 20.918 2.13373C20.796 2.17557 20.7147 2.25924 20.674 2.38475H20.7147Z" fill="#FFEF84"/>
<path fill-rule="evenodd" clip-rule="evenodd" d="M31.127 18.576C31.127 18.4087 31.0457 18.9944 31.0863 18.9944C31.127 18.9944 31.2084 18.9944 31.249 18.9944C31.3304 18.9944 31.3304 18.9526 31.3711 18.9107C31.4931 18.8271 31.5744 18.7852 31.5744 18.6179C31.5744 18.4924 31.5744 18.4087 31.4524 18.3668C31.4117 18.3668 31.3711 18.325 31.3304 18.325C31.2084 18.3669 31.127 18.4505 31.0863 18.576H31.127Z" fill="#FFEF84"/>
<path fill-rule="evenodd" clip-rule="evenodd" d="M20.1453 34.0142C20.308 34.0142 19.7385 34.0142 19.7385 34.0142C19.7385 34.056 19.7385 34.1397 19.7385 34.1815C19.7385 34.2652 19.7792 34.2652 19.8199 34.3071C19.9012 34.3907 19.9826 34.4744 20.1046 34.4744C20.2266 34.4744 20.3079 34.4326 20.3079 34.3071C20.3079 34.2652 20.3486 34.2234 20.3079 34.1815C20.2673 34.056 20.1453 33.9724 20.0639 33.9724L20.1453 34.0142Z" fill="#FFEF84"/>
<path fill-rule="evenodd" clip-rule="evenodd" d="M11.3599 16.9862C11.3599 16.8188 11.2786 17.4046 11.3193 17.4046C11.3599 17.4046 11.4413 17.4046 11.4819 17.4046C11.5633 17.4046 11.5633 17.3627 11.604 17.3209C11.726 17.2372 11.8073 17.1954 11.8073 17.028C11.8073 16.9025 11.8073 16.8188 11.6853 16.777C11.6446 16.777 11.604 16.7352 11.5633 16.7352C11.4413 16.777 11.3599 16.8607 11.3193 16.9862H11.3599Z" fill="#FFEF84"/>
<path fill-rule="evenodd" clip-rule="evenodd" d="M19.8605 32.2989C19.9012 32.0897 19.7792 32.8846 19.8199 32.9264C19.9012 32.9264 19.9825 32.9264 20.0639 32.9264C20.1452 32.9264 20.1859 32.8428 20.2673 32.8009C20.43 32.6754 20.552 32.5917 20.552 32.3826C20.552 32.2152 20.5113 32.0897 20.3486 32.006C20.2673 31.9642 20.2266 31.9642 20.1452 31.9642C19.9825 32.006 19.8605 32.1734 19.7792 32.3407L19.8605 32.2989Z" fill="#FF9F84"/>
<path fill-rule="evenodd" clip-rule="evenodd" d="M9.08161 19.2873C15.3046 20.2914 14.9385 22.0067 22.1784 19.9567C29.4182 17.9066 34.6244 6.73588 34.6244 6.73588C34.6244 6.73588 34.9904 5.89912 34.665 5.39706C34.543 5.18787 33.6075 5.60625 33.6075 5.60625C33.7702 9.20432 28.8894 16.6515 23.3579 18.7852C22.7478 18.9944 22.1784 19.0781 21.6089 19.2036C21.3649 19.0781 20.7141 18.4505 23.724 16.3586C27.3032 13.8902 28.8894 12.9697 28.5641 10.3758C28.2387 7.78183 31.4112 3.72355 31.4112 3.72355C31.4112 3.72355 31.6552 2.63576 31.0451 1.96635C30.2723 1.08776 28.5641 1.96635 28.5641 1.96635C28.5641 1.96635 28.1167 7.02874 21.8937 9.74821C15.6707 12.4677 12.1728 11.1289 9.81372 10.3758C7.414 9.6227 6.72255 5.56442 6.72255 5.56442C6.72255 5.56442 4.6889 5.14604 3.95678 6.44301C3.42803 7.40528 4.20082 8.61858 4.20082 8.61858C4.20082 8.61858 7.98342 10.0411 11.3593 11.3799C14.7352 12.7187 21.2429 11.5054 23.5206 10.3758C25.839 9.24615 25.839 7.40529 27.6693 5.73177C28.4421 5.06236 29.2148 4.56031 29.8656 4.26744C29.8656 4.26744 27.832 7.48896 28.076 9.74821C28.32 12.0075 26.9371 11.9238 23.5206 15.8984C21.1209 18.6597 19.0465 19.5801 18.0297 19.8311C15.4266 20.0822 13.0269 19.7893 9.81372 18.8689C4.56688 17.4045 1.43504 15.0616 1.43504 15.0616C1.43504 15.0616 0.987634 14.8524 0.824941 15.3545C0.743595 15.5637 1.23167 16.1913 1.23167 16.1913C1.23167 16.1913 2.85861 18.2413 9.08161 19.2873Z" fill="url(#paint2_linear_304_10)"/>
<path fill-rule="evenodd" clip-rule="evenodd" d="M13.4745 38.2817C13.4745 38.2817 11.929 37.2776 10.7901 34.2234C9.65126 31.1693 9.77329 31.3785 7.61761 29.4539C5.46193 27.5294 1.71999 25.6467 1.71999 25.6467C1.71999 25.6467 1.47595 25.7303 1.47595 25.814C1.47595 26.1906 1.92336 26.2742 1.92336 26.2742C1.92336 26.2742 5.42125 27.8222 7.61761 30.2907C9.81396 32.7591 12.173 37.1939 10.5054 36.9429C10.5054 36.9429 10.8715 38.0307 11.7663 38.2817C12.6204 38.5327 13.4745 38.2817 13.4745 38.2817Z" fill="url(#paint3_radial_304_10)"/>
<path d="M28.8086 23.5129C29.5407 22.718 30.3948 21.672 33.8927 21.6302C37.3906 21.5884 39.1802 22.3833 39.1802 22.3833C39.1802 22.3833 39.9123 22.1741 39.9937 21.2118C40.075 20.2496 39.3429 19.7893 39.3429 19.7893C39.3022 20.0822 38.9362 22.0904 35.967 20.919C35.967 20.8771 37.0246 19.9149 37.2279 17.9066C37.472 15.8984 38.1634 13.0116 38.1634 13.0116C38.1634 13.0116 38.5701 12.3003 38.3261 11.7146C38.2447 11.5054 37.5533 11.4218 37.5533 11.4218C38.1634 15.48 36.6585 20.3332 35.0316 20.919C33.0792 20.9608 30.6795 21.2955 29.5813 22.0486C28.2391 22.969 26.8969 27.0691 26.0428 29.956C25.8394 30.6672 25.392 31.4621 24.8226 32.2152C22.6669 32.7591 23.3583 30.0815 22.4229 29.2865C21.4874 28.4916 19.7384 28.91 18.5589 28.4916C17.4201 28.0314 17.0947 27.111 15.8745 26.9436C14.6543 26.7763 12.702 29.161 10.4649 28.1988C8.22792 27.2365 0.825395 18.1995 0.825395 18.1995C0.825395 18.1995 0.174623 18.0321 0.0119307 18.4924C-0.110089 18.8689 0.744056 19.8312 0.744056 19.8312C0.744056 19.8312 5.90955 27.8222 10.831 28.8682C15.7525 29.9141 20.2265 28.9518 21.7721 30.2907C23.3177 31.6713 23.4397 33.8469 23.4397 33.8887C21.8534 35.6459 19.9418 37.1521 19.047 37.6123C17.5014 38.4072 14.9797 38.9511 14.9797 38.9511C15.3457 39.3695 16.0372 39.7042 16.7693 39.9134C17.8675 40.2062 18.5589 39.6623 18.5589 39.6623C18.5589 39.6623 17.9488 39.1185 18.7623 38.4072C20.8366 36.6082 22.3415 35.8551 24.4972 35.3112C25.7987 34.9765 26.2055 35.6041 26.3682 35.3949C28.4018 36.0643 29.9881 34.5163 31.6963 33.052C33.4046 31.6295 35.6417 31.4203 35.6417 31.4203C35.6417 31.4203 36.7805 31.2111 37.1059 30.709C37.3906 30.2488 36.7398 29.7049 36.7398 29.7049C36.7398 29.7049 35.7637 30.1233 33.8927 31.0856C32.0624 32.0478 30.0694 34.851 27.7917 34.7673C26.5309 34.7255 26.8156 33.4285 26.6936 33.2193C26.6936 33.1356 26.6936 33.052 26.6936 32.9264C26.6529 32.006 26.4495 31.1274 26.4495 30.458C26.4495 30.2907 26.4495 30.1233 26.4902 29.956C26.8156 28.91 28.0764 24.266 28.8086 23.5129ZM24.8633 32.1734C24.4565 32.7173 24.0091 33.2611 23.521 33.805L24.8633 32.1734ZM26.6122 33.5958C26.6529 33.805 26.6936 34.0142 26.6529 34.2653C26.6529 34.3908 26.6122 34.4745 26.5308 34.5163C26.4495 34.5581 26.4088 34.5581 26.3275 34.5581C26.2461 34.6 26.1241 34.6 26.0428 34.6418C25.8801 34.6836 25.7174 34.6418 25.5954 34.6418C25.4327 34.6418 25.27 34.6418 25.1073 34.6418C25.0259 34.6418 24.9446 34.6 24.8633 34.6C24.7819 34.6 24.6599 34.6 24.6192 34.5581C24.4565 34.4744 24.3345 34.2653 24.2125 34.2234C24.2125 34.0561 24.2125 33.9306 24.2938 33.805C24.2938 33.7632 24.3345 33.7214 24.3345 33.6377C24.3752 33.554 24.3752 33.4703 24.4159 33.3867C24.4972 33.1775 24.5785 32.9683 24.7412 32.8009C24.7819 32.7173 24.8632 32.5917 24.9039 32.5081C24.9853 32.3826 25.0666 32.2989 25.148 32.2152C25.27 32.0897 25.392 31.9642 25.5547 31.8805C25.6767 31.7968 25.8801 31.7131 26.0428 31.755C26.2055 31.7968 26.2461 32.006 26.2868 32.1315C26.3275 32.2152 26.3275 32.3407 26.3682 32.4244C26.4088 32.5499 26.4495 32.6754 26.4902 32.8009C26.5309 32.9683 26.5309 33.0938 26.5715 33.2612C26.5715 33.3448 26.5715 33.4703 26.6122 33.5958Z" fill="url(#paint4_linear_304_10)"/>
<path fill-rule="evenodd" clip-rule="evenodd" d="M4.6488 5.98285C4.6488 5.98285 5.50294 7.82372 7.73997 9.49724C7.73997 9.49724 7.00785 6.81961 6.4791 5.73182C6.4791 5.73182 5.74698 5.02058 4.6488 5.98285Z" fill="#FFFF0E"/>
<path fill-rule="evenodd" clip-rule="evenodd" d="M16.4032 11.6309C16.4032 11.6309 17.9081 11.0034 18.3962 11.2544C18.3962 11.2126 16.9319 11.6309 16.4032 11.6309Z" fill="#FFFF0E"/>
<path fill-rule="evenodd" clip-rule="evenodd" d="M21.4875 10.1666C21.7722 10.0829 22.057 9.99927 22.301 9.87376C22.545 9.79008 22.7484 9.66457 22.9924 9.53906C23.2771 9.3717 23.5619 9.20435 23.8059 8.99516C23.8873 8.95332 23.9279 8.91149 24.0093 8.86965C24.0906 8.82781 24.172 8.74414 24.2533 8.7023C24.3347 8.66046 24.3753 8.57678 24.4567 8.53495C24.538 8.49311 24.5787 8.40943 24.66 8.36759C24.7821 8.28392 24.9041 8.15841 24.9854 8.07473C25.0261 8.03289 25.0668 7.99105 25.1481 7.90738C25.1888 7.86554 25.2295 7.86554 25.2701 7.86554C25.2701 7.90738 25.2295 7.99105 25.2295 8.03289C25.1888 8.11657 25.1481 8.15841 25.1074 8.24208C25.0261 8.40943 24.8634 8.49311 24.7414 8.66046C24.66 8.74414 24.5787 8.82781 24.4567 8.91149C24.3347 8.99516 24.172 9.07884 24.0093 9.16251C23.8466 9.24619 23.6839 9.28803 23.5619 9.3717C23.4398 9.45538 23.2771 9.53906 23.1551 9.58089C23.0738 9.62273 22.9518 9.70641 22.8704 9.74825C22.7891 9.79008 22.7077 9.83192 22.6264 9.87376C22.5044 9.95743 22.3823 9.99927 22.2603 10.0829C22.179 10.1248 22.1383 10.1248 22.057 10.1666C21.9349 10.2503 21.7316 10.2921 21.5689 10.2921C21.5282 10.2921 21.4469 10.2921 21.4062 10.2921C21.3655 10.2921 21.3248 10.2503 21.3248 10.2503C21.4062 10.2085 21.4469 10.1666 21.4875 10.1666Z" fill="#FFFF0E"/>
<path fill-rule="evenodd" clip-rule="evenodd" d="M25.5548 7.44723C25.4735 7.48907 25.4328 7.53091 25.3515 7.61458C25.3515 7.65642 25.3108 7.69826 25.3921 7.69826C25.4735 7.69826 25.5142 7.65642 25.5955 7.57274C25.6362 7.5309 25.6769 7.44723 25.6362 7.40539C25.5955 7.36355 25.5142 7.40539 25.4735 7.44723H25.5548Z" fill="#FFFF0E"/>
<path fill-rule="evenodd" clip-rule="evenodd" d="M28.8492 2.05006C28.8085 2.13374 28.7272 2.21742 28.6865 2.30109C28.6458 2.38477 28.6458 2.42661 28.6051 2.51028C28.5645 2.6358 28.5238 2.80315 28.4831 2.92866C28.4018 3.17969 28.3611 3.47255 28.2391 3.72358C28.1984 3.8491 28.1577 3.93277 28.0764 4.05828C28.0357 4.10012 27.995 4.1838 27.995 4.22564C27.9544 4.26748 27.9544 4.30931 27.9137 4.39299C27.873 4.43483 27.873 4.47667 27.8323 4.5185C27.7917 4.56034 27.7917 4.64402 27.751 4.68585C27.7103 4.72769 27.629 4.85321 27.6697 4.89504C27.7103 4.89504 27.7103 4.85321 27.751 4.85321C27.7917 4.81137 27.873 4.76953 27.9137 4.68585C28.0357 4.60218 28.1171 4.47666 28.1984 4.35115C28.2391 4.30931 28.2797 4.26747 28.3204 4.1838C28.3611 4.10012 28.4424 4.05828 28.4831 3.97461C28.5645 3.8491 28.6865 3.72358 28.7678 3.63991C28.8085 3.59807 28.8492 3.51439 28.8899 3.47255C28.9305 3.43072 28.9712 3.38888 29.0119 3.3052C29.1746 3.13785 29.2966 2.9705 29.4593 2.80315C29.5813 2.67763 29.6626 2.51028 29.7846 2.38477C29.866 2.25925 29.9473 2.13374 29.988 2.00823C30.0287 1.96639 30.0694 1.84088 30.0694 1.79904C30.0287 1.71536 29.9473 1.67352 29.866 1.67352C29.744 1.67352 29.622 1.67352 29.5 1.67352C29.3779 1.71536 29.2966 1.7572 29.1745 1.79904C29.0932 1.84088 29.0119 1.92455 28.8899 1.96639C28.8492 2.05006 28.7678 2.0919 28.8492 2.05006Z" fill="#FFFF0E"/>
<path fill-rule="evenodd" clip-rule="evenodd" d="M29.8254 4.43491C29.7847 4.51859 29.744 4.60226 29.7034 4.68594C29.6627 4.72778 29.622 4.81145 29.5813 4.85329C29.5 4.9788 29.4593 5.10432 29.3779 5.18799C29.2559 5.39718 29.0933 5.60637 29.0119 5.81556C28.9712 5.89924 28.9306 5.98291 28.8899 6.06659C28.8492 6.15026 28.8085 6.27578 28.8085 6.35946C28.7679 6.44313 28.7679 6.52681 28.7272 6.65232C28.7272 6.736 28.6865 6.81967 28.6865 6.90335C28.7679 6.81967 28.8085 6.69416 28.8899 6.61048C28.9306 6.52681 28.9712 6.44313 29.0526 6.40129C29.1339 6.35946 29.1746 6.27578 29.2153 6.1921C29.2559 6.10843 29.3373 6.06659 29.3779 5.98291C29.4186 5.89924 29.4593 5.8574 29.5 5.77372C29.5407 5.73189 29.5813 5.64821 29.622 5.56453C29.6627 5.48086 29.7033 5.39718 29.744 5.31351C29.7847 5.14615 29.866 4.9788 29.9067 4.81145C29.9067 4.72778 29.9474 4.6441 29.9067 4.56042C29.9067 4.51859 29.8254 4.35123 29.8254 4.43491Z" fill="#FFFF0E"/>
<path fill-rule="evenodd" clip-rule="evenodd" d="M28.4831 7.15434C28.4424 7.27986 28.4017 7.36353 28.4017 7.48905C28.4017 7.53089 28.4017 7.57272 28.4017 7.57272C28.4424 7.57272 28.4831 7.57272 28.4831 7.53089C28.5238 7.53089 28.5237 7.48905 28.5237 7.44721C28.5644 7.40537 28.6051 7.3217 28.5644 7.23802C28.5644 7.15435 28.4831 7.11251 28.4424 7.19618L28.4831 7.15434Z" fill="#FFFF0E"/>
<path fill-rule="evenodd" clip-rule="evenodd" d="M26.49 12.8862C26.2867 13.0953 26.002 13.3045 25.8393 13.5556C25.8393 13.5974 25.7173 13.6811 25.7579 13.7229C25.7986 13.7647 25.8799 13.7229 25.9206 13.7229C26.0426 13.6811 26.1647 13.5974 26.2867 13.5556C26.368 13.5137 26.4494 13.43 26.5307 13.3882C26.7341 13.2627 26.8968 13.0953 27.0595 12.8862C27.1408 12.8025 27.1815 12.7188 27.2222 12.6351C27.2222 12.5933 27.2628 12.5096 27.2628 12.5096C27.2222 12.3841 26.9781 12.5096 26.9374 12.5514C26.8968 12.5933 26.8154 12.6351 26.7748 12.677C26.7341 12.7188 26.6934 12.7606 26.6527 12.7606C26.6121 12.8025 26.5714 12.8443 26.49 12.8862C26.4494 12.9698 26.49 12.928 26.49 12.8862Z" fill="#FFFF0E"/>
<path fill-rule="evenodd" clip-rule="evenodd" d="M25.5141 13.932C25.4327 13.9738 25.3514 14.0157 25.3107 14.0575C25.3107 14.0994 25.2294 14.1412 25.2701 14.183C25.3107 14.2249 25.3921 14.183 25.3921 14.183C25.4327 14.183 25.4734 14.1412 25.5141 14.0994C25.5141 14.0157 25.5141 14.0157 25.5141 13.932Z" fill="#FFFF0E"/>
<path fill-rule="evenodd" clip-rule="evenodd" d="M20.5111 18.8271C20.3484 18.9526 20.145 19.0781 19.9416 19.2036C19.6976 19.3291 19.4536 19.4128 19.2502 19.5383C18.8841 19.7475 18.5181 19.9149 18.152 20.0822C18.1113 20.1241 17.5419 20.3333 17.7453 20.4588C17.8266 20.5006 17.9487 20.5006 18.03 20.5006C18.1113 20.5006 18.1927 20.5424 18.274 20.5424C18.3554 20.5424 18.4367 20.5424 18.5181 20.5424C18.9655 20.5424 19.4536 20.4169 19.8603 20.2496C19.9416 20.2077 20.0637 20.1659 20.145 20.1241C20.1857 20.0822 20.2263 20.0404 20.3077 19.9986C20.389 19.9149 20.4704 19.8312 20.5111 19.7057C20.5924 19.5383 20.6331 19.4128 20.6331 19.2036C20.6331 19.12 20.5924 19.0781 20.5517 18.9944C20.5517 18.9526 20.5111 18.9108 20.5111 18.8271Z" fill="#FFFF0E"/>
<path fill-rule="evenodd" clip-rule="evenodd" d="M17.3389 20.2496C17.2575 20.2078 17.1355 20.1241 17.0135 20.1241C16.9728 20.1241 16.9321 20.1241 16.8914 20.1241C16.8101 20.1241 16.6881 20.1659 16.6067 20.2078C16.5254 20.2914 16.7288 20.3751 16.8101 20.417C16.8915 20.4588 17.0541 20.4588 17.1355 20.417C17.2168 20.417 17.3389 20.3333 17.3389 20.2496C17.3795 20.2496 17.3795 20.2496 17.3795 20.2496H17.3389Z" fill="#FFFF0E"/>
<path fill-rule="evenodd" clip-rule="evenodd" d="M23.2362 18.9526C23.6429 18.8271 24.0497 18.6597 24.4157 18.4505C24.5784 18.3669 24.7004 18.2832 24.8631 18.1995C24.9445 18.1577 25.0665 18.074 25.1479 18.0322C25.1885 18.0322 25.4326 17.8648 25.4732 17.9485C25.5139 18.0322 25.2699 18.1995 25.2292 18.2413C25.1479 18.325 25.0258 18.4087 24.9038 18.4924C24.8225 18.576 24.7005 18.576 24.6191 18.6597C24.4971 18.7434 24.3751 18.7852 24.2124 18.8689C24.131 18.9107 24.009 18.9526 23.9277 18.9944C23.8463 19.0363 23.7649 19.0363 23.6836 19.0781C23.6429 19.0781 23.5616 19.0781 23.5209 19.0781C23.4396 19.0363 23.2769 19.0781 23.2362 18.9526Z" fill="#FFFF0E"/>
<path fill-rule="evenodd" clip-rule="evenodd" d="M32.3065 21.2537C32.5098 21.2537 32.7539 21.2955 32.9573 21.2537C33.12 21.2118 33.242 21.2118 33.4047 21.17C33.6894 21.1282 34.0148 21.0445 34.2995 21.0445C34.4215 21.0445 34.5435 21.0445 34.6655 21.0445C34.7469 21.0445 34.8282 21.0445 34.8689 21.0445C34.9096 21.0445 34.9909 21.0863 34.9909 21.1282C35.0723 21.2118 34.9909 21.2118 34.9502 21.2118C34.8282 21.2537 34.7469 21.3374 34.6249 21.3374C34.4215 21.3792 34.2588 21.421 34.0554 21.4629C33.9334 21.4629 33.8114 21.4629 33.6487 21.4629C33.486 21.5047 33.3233 21.5047 33.1199 21.5047C32.9572 21.5047 32.8352 21.5047 32.6725 21.5047C32.5505 21.5047 32.4692 21.4629 32.3472 21.4629C32.2658 21.4629 32.1845 21.4629 32.1438 21.421C32.1845 21.4629 32.1031 21.3792 32.3065 21.2537Z" fill="#FFFF0E"/>
<path fill-rule="evenodd" clip-rule="evenodd" d="M37.1874 21.4628C37.4314 21.5047 37.5941 21.5047 37.8382 21.4628C38.0009 21.421 38.1635 21.421 38.2856 21.3791C38.4889 21.3373 38.733 21.2536 38.9363 21.1281C39.0583 21.0444 39.2617 20.9189 39.3837 20.9608C39.5058 21.0026 39.6278 21.1281 39.6278 21.2536C39.6278 21.421 39.4651 21.5047 39.3837 21.5883C39.221 21.7138 38.9363 21.7975 38.733 21.7975C38.4889 21.7975 38.2042 21.7557 37.9602 21.7138C37.8788 21.7138 37.7975 21.672 37.7161 21.672C37.6348 21.6302 37.4721 21.6302 37.1874 21.4628Z" fill="#FFFF0E"/>
<path fill-rule="evenodd" clip-rule="evenodd" d="M37.7568 11.6729C37.7568 11.8402 37.6347 12.3004 37.8381 12.4259C37.9601 12.5096 38.0008 12.3004 38.0008 12.2167C38.0415 12.0912 37.9601 11.7565 37.7568 11.6729Z" fill="#FFFF0E"/>
<path fill-rule="evenodd" clip-rule="evenodd" d="M1.43512 15.7729C1.63849 16.0239 1.76051 16.2749 2.00455 16.4005C2.16724 16.4841 2.28926 16.6096 2.45195 16.6515C2.61465 16.6933 2.81802 16.7352 2.98071 16.7352C3.06206 16.7352 3.10273 16.7352 3.10273 16.6096C3.10273 16.5678 3.06205 16.4841 3.02138 16.4423C2.9807 16.3586 2.89936 16.3168 2.81801 16.2331C2.73666 16.1494 2.69599 16.0657 2.61465 15.9821C2.32993 15.731 2.04523 15.5637 1.67917 15.4382C1.55715 15.3963 1.55714 15.3963 1.43512 15.4382C1.35378 15.48 1.35378 15.48 1.31311 15.5637C1.31311 15.6892 1.39445 15.8147 1.4758 15.9402L1.43512 15.7729Z" fill="#FFFF0E"/>
<path fill-rule="evenodd" clip-rule="evenodd" d="M1.59832 19.6639C1.88304 20.166 2.2491 20.5843 2.61515 21.0446C2.85919 21.3374 3.02189 21.7558 3.3066 22.0487C3.34728 22.0905 3.87603 22.5507 3.87603 22.2997C3.87603 22.2579 3.71334 22.0068 3.71334 21.965C3.63199 21.8395 3.55064 21.6721 3.42862 21.5466C3.34727 21.4211 3.22526 21.3374 3.18459 21.2119C3.10324 21.0864 3.02189 21.0027 2.94055 20.8772C2.81853 20.7517 2.73718 20.5425 2.65583 20.417C2.57448 20.2915 2.45247 20.1241 2.37112 19.9986C2.24911 19.7894 2.08641 19.5802 1.88304 19.4965C1.84237 19.4547 1.76102 19.4129 1.67968 19.4547C1.47631 19.5802 1.55765 19.8312 1.59832 19.6639Z" fill="#FFFF0E"/>
<path fill-rule="evenodd" clip-rule="evenodd" d="M20.145 28.9937C20.5924 28.91 20.9178 28.8264 21.3652 28.9519C21.5686 28.9937 21.7719 29.0774 21.9753 29.1192C22.0973 29.1611 22.3007 29.2029 22.382 29.2866C22.4634 29.4121 22.4634 29.5795 22.3414 29.6631C22.2194 29.7886 21.9346 29.7468 21.7719 29.7468C21.4466 29.705 21.1619 29.6631 20.8365 29.5795C20.6738 29.5376 20.4297 29.4539 20.267 29.3284C20.2264 29.2866 20.0637 29.1192 20.145 28.9937Z" fill="#FFFF0E"/>
<path fill-rule="evenodd" clip-rule="evenodd" d="M26.0426 31.3366C25.8392 31.2948 25.7985 30.8764 25.8799 30.7091C25.9205 30.6254 25.9612 30.458 26.0832 30.4162C26.1646 30.3744 26.2052 30.458 26.2866 30.458C26.2052 30.6672 26.0832 30.8346 25.9612 31.0019L26.0426 31.3366Z" fill="#FFFF0E"/>
<path fill-rule="evenodd" clip-rule="evenodd" d="M34.1368 31.2111C34.4216 31.0019 34.6249 30.8764 34.9503 30.7927C35.113 30.7509 35.2757 30.7091 35.4384 30.6672C35.6418 30.6254 35.8045 30.4999 36.0078 30.4999C36.0892 30.4999 36.1298 30.4999 36.2112 30.458C36.2925 30.458 36.2519 30.4162 36.3332 30.458C36.4959 30.5417 36.4145 30.6672 36.3332 30.7509C36.1298 30.9183 35.9671 31.0019 35.7231 31.0438C35.5604 31.0856 35.4791 31.1693 35.3164 31.2111C35.235 31.253 35.1537 31.253 35.0723 31.2948C34.7063 31.3785 34.3402 31.2948 34.1368 31.2111Z" fill="#FFFF0E"/>
<path fill-rule="evenodd" clip-rule="evenodd" d="M8.2686 30.4998C8.43129 30.8764 8.59398 31.2529 8.83802 31.5876C8.96004 31.755 9.04138 31.8805 9.20407 31.9642C9.32609 32.006 9.44812 32.0478 9.44812 31.8386C9.44812 31.755 9.36676 31.5876 9.32609 31.5039C9.1634 31.2111 8.96004 31.0019 8.79734 30.7509C8.716 30.6672 8.63465 30.4998 8.5533 30.458C8.43128 30.4162 8.22792 30.3325 8.2686 30.4998Z" fill="#FFFF0E"/>
<path fill-rule="evenodd" clip-rule="evenodd" d="M15.7931 38.9512C16.2405 38.8675 16.6066 38.7002 17.0133 38.5747C17.176 38.491 17.3387 38.491 17.542 38.491L17.5827 38.4491C17.6234 38.4491 17.7047 38.4491 17.7454 38.4491C17.7861 38.4491 17.9894 38.4073 18.0301 38.4491C18.1928 38.5747 17.8674 38.9094 17.7861 38.9512C17.5014 39.2441 17.054 39.4114 16.6066 39.3696C16.4032 39.3277 16.1998 39.2441 15.9965 39.2022C15.8744 39.2022 15.5897 39.1185 15.5897 38.9512C15.6304 38.993 15.6304 38.9512 15.7931 38.9512Z" fill="#FFFF0E"/>
<path fill-rule="evenodd" clip-rule="evenodd" d="M23.2769 34.4745C22.9108 34.7255 22.4634 34.9765 22.1787 35.3949C21.9754 35.6878 22.3414 35.6041 22.5041 35.5623C22.6261 35.5204 22.7481 35.4786 22.8295 35.3949C22.9108 35.3112 22.9922 35.2694 23.0735 35.1439C23.1549 35.0602 23.1956 35.0184 23.2769 34.9765C23.3176 34.8929 23.3582 34.7674 23.4396 34.7255C23.4396 34.6837 23.3989 34.6837 23.3989 34.6418L23.2769 34.4745Z" fill="#FFFF0E"/>
<path fill-rule="evenodd" clip-rule="evenodd" d="M12.783 28.408C13.0677 28.2824 13.3525 28.1988 13.5965 28.0314C13.8405 27.9059 14.0846 27.7386 14.3286 27.613C14.654 27.4457 14.9794 27.2365 15.3455 27.1947C15.4675 27.1947 15.5895 27.111 15.7115 27.1947C15.8335 27.2365 15.8742 27.2783 15.9556 27.362C16.1589 27.6549 15.7522 27.9059 15.5488 28.0314C15.3861 28.1569 15.2641 28.2824 15.0607 28.3661C14.8574 28.4498 14.654 28.4916 14.4506 28.5753C14.1253 28.7008 13.7592 28.8682 13.3931 28.91C13.1898 28.9519 13.0271 28.8682 12.8644 28.7427C12.783 28.7008 12.7017 28.6172 12.661 28.5335C12.6203 28.4916 12.5797 28.408 12.783 28.408Z" fill="#FFFF0E"/>
<defs>
<radialGradient id="paint0_radial_304_10" cx="0" cy="0" r="1" gradientUnits="userSpaceOnUse" gradientTransform="translate(8.17419 10.4804) scale(30.9529 31.8393)">
<stop offset="0.00558659" stop-color="#DE6863"/>
<stop offset="0.2018" stop-color="#DB6563"/>
<stop offset="0.3542" stop-color="#D15D62"/>
<stop offset="0.4919" stop-color="#C14F60"/>
<stop offset="0.6209" stop-color="#A93B5E"/>
<stop offset="0.7437" stop-color="#8B225B"/>
<stop offset="0.8606" stop-color="#670357"/>
<stop offset="0.8715" stop-color="#630057"/>
</radialGradient>
<linearGradient id="paint1_linear_304_10" x1="0.838472" y1="14.3136" x2="28.5572" y2="14.3136" gradientUnits="userSpaceOnUse">
<stop offset="0.0111732" stop-color="#FF7D85"/>
<stop offset="0.2983" stop-color="#FC7B84"/>
<stop offset="0.5089" stop-color="#F3757F"/>
<stop offset="0.695" stop-color="#E36B77"/>
<stop offset="0.8659" stop-color="#CC5C6C"/>
<stop offset="1" stop-color="#B54D61"/>
</linearGradient>
<linearGradient id="paint2_linear_304_10" x1="0.750103" y1="11.2177" x2="34.7928" y2="11.2177" gradientUnits="userSpaceOnUse">
<stop offset="0.00558659" stop-color="#FFB80B"/>
<stop offset="0.388" stop-color="#FFB60C"/>
<stop offset="0.5789" stop-color="#FEAE10"/>
<stop offset="0.7274" stop-color="#FCA117"/>
<stop offset="0.8539" stop-color="#FA8E21"/>
<stop offset="0.9655" stop-color="#F7762E"/>
<stop offset="1" stop-color="#F66D33"/>
</linearGradient>
<radialGradient id="paint3_radial_304_10" cx="0" cy="0" r="1" gradientUnits="userSpaceOnUse" gradientTransform="translate(3.73893 29.0259) scale(9.78703 10.0673)">
<stop offset="0.00558659" stop-color="#FFB80B"/>
<stop offset="0.388" stop-color="#FFB60C"/>
<stop offset="0.5789" stop-color="#FEAE10"/>
<stop offset="0.7274" stop-color="#FCA117"/>
<stop offset="0.8539" stop-color="#FA8E21"/>
<stop offset="0.9655" stop-color="#F7762E"/>
<stop offset="1" stop-color="#F66D33"/>
</radialGradient>
<linearGradient id="paint4_linear_304_10" x1="0.0944567" y1="25.668" x2="40.0095" y2="25.668" gradientUnits="userSpaceOnUse">
<stop offset="0.00558659" stop-color="#FFB80B"/>
<stop offset="0.388" stop-color="#FFB60C"/>
<stop offset="0.5789" stop-color="#FEAE10"/>
<stop offset="0.7274" stop-color="#FCA117"/>
<stop offset="0.8539" stop-color="#FA8E21"/>
<stop offset="0.9655" stop-color="#F7762E"/>
<stop offset="1" stop-color="#F66D33"/>
</linearGradient>
</defs>
</svg>
